<svg xmlns="http://www.w3.org/2000/svg" xmlns:xlink="http://www.w3.org/1999/xlink" width="1080" zoomAndPan="magnify" viewBox="0 0 810 809.999993" height="1080" preserveAspectRatio="xMidYMid meet" version="1.0"><defs><g/><clipPath id="88e0f818c6"><path d="M 669.859375 463.402344 L 729 463.402344 L 729 522.542969 L 669.859375 522.542969 Z M 669.859375 463.402344 " clip-rule="nonzero"/></clipPath><clipPath id="2da2e2a607"><path d="M 699.429688 463.402344 C 683.097656 463.402344 669.859375 476.640625 669.859375 492.972656 C 669.859375 509.304688 683.097656 522.542969 699.429688 522.542969 C 715.761719 522.542969 729 509.304688 729 492.972656 C 729 476.640625 715.761719 463.402344 699.429688 463.402344 Z M 699.429688 463.402344 " clip-rule="nonzero"/></clipPath><clipPath id="41c5e5f9be"><path d="M 0.859375 0.402344 L 60 0.402344 L 60 59.542969 L 0.859375 59.542969 Z M 0.859375 0.402344 " clip-rule="nonzero"/></clipPath><clipPath id="55984e19e0"><path d="M 30.429688 0.402344 C 14.097656 0.402344 0.859375 13.640625 0.859375 29.972656 C 0.859375 46.304688 14.097656 59.542969 30.429688 59.542969 C 46.761719 59.542969 60 46.304688 60 29.972656 C 60 13.640625 46.761719 0.402344 30.429688 0.402344 Z M 30.429688 0.402344 " clip-rule="nonzero"/></clipPath><clipPath id="704a3b2e7d"><rect x="0" width="60" y="0" height="60"/></clipPath></defs><g fill="#1e2a24" fill-opacity="1"><g transform="translate(44.43574, 517.140631)"><g><path d="M 21.5 -81.046875 L 38.859375 -81.046875 L 47.734375 -38.65625 C 53.253906 -32.207031 61.601562 -26.8125 72.78125 -22.46875 C 83.957031 -18.132812 95.53125 -15.96875 107.5 -15.96875 C 145.238281 -15.96875 164.109375 -31.484375 164.109375 -62.515625 C 164.109375 -72.242188 160.523438 -80.457031 153.359375 -87.15625 C 146.191406 -93.863281 134.914062 -99.847656 119.53125 -105.109375 C 96.914062 -112.597656 80.640625 -118.675781 70.703125 -123.34375 C 60.773438 -128.019531 52.394531 -133.507812 45.5625 -139.8125 C 38.726562 -146.125 33.269531 -153.78125 29.1875 -162.78125 C 25.113281 -171.789062 23.078125 -182.867188 23.078125 -196.015625 C 23.078125 -219.285156 31 -237 46.84375 -249.15625 C 62.6875 -261.320312 85.863281 -267.40625 116.375 -267.40625 C 138.46875 -267.40625 162.925781 -264.578125 189.75 -258.921875 L 189.75 -196.015625 L 172.1875 -196.015625 L 163.3125 -232.3125 C 149.90625 -242.039062 134.257812 -246.90625 116.375 -246.90625 C 100.195312 -246.90625 87.769531 -243.910156 79.09375 -237.921875 C 70.414062 -231.941406 66.078125 -222.773438 66.078125 -210.421875 C 66.078125 -201.609375 69.691406 -194.078125 76.921875 -187.828125 C 84.148438 -181.585938 95.457031 -176.035156 110.84375 -171.171875 C 140.957031 -161.316406 161.632812 -152.738281 172.875 -145.4375 C 184.125 -138.144531 192.707031 -129.109375 198.625 -118.328125 C 204.539062 -107.546875 207.5 -94.859375 207.5 -80.265625 C 207.5 -24.128906 174.425781 3.9375 108.28125 3.9375 C 93.164062 3.9375 77.75 2.65625 62.03125 0.09375 C 46.320312 -2.46875 32.8125 -5.851562 21.5 -10.0625 Z M 21.5 -81.046875 "/></g></g></g><g fill="#1e2a24" fill-opacity="1"><g transform="translate(229.824299, 517.140631)"><g><path d="M 296.0625 6.109375 L 271.796875 6.109375 L 205.921875 -156.96875 L 140.640625 6.109375 L 116.375 6.109375 L 28.796875 -244.921875 L 5.71875 -250.0625 L 5.71875 -264.453125 L 124.453125 -264.453125 L 124.453125 -250.0625 L 93.5 -244.921875 L 149.90625 -87.359375 L 211.84375 -241.96875 L 236.5 -241.96875 L 298.625 -87.75 L 345.375 -244.921875 L 312.03125 -250.0625 L 312.03125 -264.453125 L 397.640625 -264.453125 L 397.640625 -250.0625 L 374.5625 -244.921875 Z M 296.0625 6.109375 "/></g></g></g><g clip-path="url(#88e0f818c6)"><g clip-path="url(#2da2e2a607)"><g transform="matrix(1, 0, 0, 1, 669, 463)"><g clip-path="url(#704a3b2e7d)"><g clip-path="url(#41c5e5f9be)"><g clip-path="url(#55984e19e0)"><path fill="#8c6239" d="M 0.859375 0.402344 L 60 0.402344 L 60 59.542969 L 0.859375 59.542969 Z M 0.859375 0.402344 " fill-opacity="1" fill-rule="nonzero"/></g></g></g></g></g></g></svg>